<svg width="105" height="40" viewBox="0 0 105 40" fill="none" xmlns="http://www.w3.org/2000/svg">
<path d="M15.1693 24.9258L16.0959 24.3909C16.4735 24.1728 16.6029 23.6898 16.3849 23.3121L14.6292 20.2711C14.4829 20.0178 14.2175 19.8761 13.9446 19.8761C13.8106 19.8761 13.6749 19.9102 13.5505 19.9821L12.624 20.517C12.4967 20.5905 12.3617 20.624 12.2303 20.624C11.8178 20.624 11.4394 20.2942 11.4394 19.8331V18.7632C11.4394 18.3272 11.0859 17.9735 10.6497 17.9735H7.13816C6.70206 17.9735 6.34839 18.327 6.34839 18.7632V19.8331C6.34839 20.2942 5.96994 20.624 5.55755 20.624C5.42611 20.624 5.29116 20.5905 5.16388 20.517L4.23728 19.9821C4.11297 19.9103 3.97708 19.8762 3.84321 19.8761C3.57021 19.8761 3.30489 20.0178 3.15863 20.2711L1.40294 23.3121C1.18489 23.6898 1.31432 24.1728 1.69196 24.3909L2.61856 24.9258C3.14503 25.2298 3.14503 25.9896 2.61856 26.2936L1.69196 26.8286C1.31419 27.0466 1.18489 27.5296 1.40294 27.9074L3.15863 30.9483C3.30489 31.2016 3.57035 31.3433 3.84321 31.3433C3.97722 31.3433 4.11297 31.3091 4.23728 31.2373L5.16388 30.7024C5.29116 30.629 5.42611 30.5954 5.55755 30.5954C5.97008 30.5954 6.34839 30.9253 6.34839 31.3863V32.4562C6.34839 32.8923 6.70193 33.2459 7.13816 33.2459H10.6495C11.0856 33.2459 11.4393 32.8924 11.4393 32.4562V31.3863C11.4393 30.9253 11.8178 30.5954 12.2301 30.5954C12.3616 30.5954 12.4965 30.629 12.6238 30.7024L13.5504 31.2373C13.6747 31.3091 13.8106 31.3433 13.9445 31.3433C14.2175 31.3433 14.4828 31.2016 14.6291 30.9483L16.3848 27.9074C16.6028 27.5296 16.4734 27.0466 16.0957 26.8286L15.1691 26.2936C14.6428 25.9896 14.6428 25.2296 15.1693 24.9258ZM8.89398 27.9526C7.59998 27.9526 6.55109 26.9036 6.55109 25.6097C6.55109 24.3157 7.60011 23.2668 8.89398 23.2668C10.1879 23.2668 11.2369 24.3158 11.2369 25.6097C11.2369 26.9036 10.1879 27.9526 8.89398 27.9526Z" fill="white"/>
<path d="M14.5601 3.18638C14.1364 2.76295 13.4499 2.76295 13.0262 3.18638C12.6027 3.61008 12.6027 4.29668 13.0262 4.72025L14.9643 6.65817C7.84119 7.01089 2.07527 12.6059 1.45129 19.6556L1.61156 19.3779C2.07028 18.5833 2.9255 18.0897 3.84321 18.0898C3.86261 18.0898 3.88187 18.0916 3.90126 18.0921C5.12335 13.0118 9.55311 9.16941 14.9201 8.83568L13.0262 10.7294C12.6027 11.153 12.6027 11.8397 13.0262 12.2633C13.2381 12.475 13.5155 12.5809 13.7931 12.5809C14.0707 12.5809 14.3483 12.475 14.56 12.2633L18.3316 8.4917C18.5349 8.2882 18.6491 8.01238 18.6491 7.72483C18.6491 7.43716 18.5349 7.16133 18.3316 6.95796L14.5601 3.18638Z" fill="#3C8BD4"/>
<path d="M28.2651 8.73495C30.6733 8.73495 32.6325 6.77576 32.6325 4.36754C32.6325 1.95919 30.6733 0 28.2651 0C25.8569 0 23.8977 1.95919 23.8977 4.36741C23.8977 6.77562 25.8569 8.73495 28.2651 8.73495Z" fill="white"/>
<path d="M36.7729 20.5085V14.5045C36.7729 12.8425 35.7049 11.3687 34.1255 10.8514L34.1182 10.849L31.8082 10.4665C31.6115 10.406 31.4014 10.5102 31.3307 10.7041L28.7096 17.8959C28.5583 18.3108 27.9715 18.3108 27.8204 17.8959L25.1993 10.7041C25.1422 10.5475 24.9943 10.4493 24.8359 10.4493C24.7983 10.4493 22.4118 10.8485 22.4118 10.8485C20.8195 11.3791 19.7555 12.8552 19.7555 14.5244V20.5085C19.7555 21.4054 20.4825 22.1322 21.3792 22.1322H35.149C36.046 22.1322 36.7729 21.4052 36.7729 20.5085Z" fill="white"/>
<path d="M38.703 21.9438C38.6124 23.1849 37.5942 23.9449 36.3529 24.0349C35.4018 29.4793 30.8031 33.6834 25.1773 34.0332L27.071 32.1394C27.4946 31.7157 27.4946 31.0291 27.071 30.6055C26.6473 30.1821 25.9608 30.1821 25.5371 30.6055L21.7657 34.3771C21.3421 34.8008 21.3421 35.4874 21.7657 35.911L25.5371 39.6824C25.749 39.8942 26.0264 40 26.304 40C26.5816 40 26.8591 39.8942 27.0709 39.6824C27.4944 39.2589 27.4944 38.5721 27.0709 38.1486L25.1329 36.2107C32.6788 35.8371 38.703 29.5808 38.703 21.9438Z" fill="#3C8BD4"/>
<path d="M29.217 10.3845C29.1164 10.2749 28.9692 10.2197 28.8202 10.2197H27.7098C27.5609 10.2197 27.4137 10.2749 27.313 10.3845C27.1572 10.5543 27.1345 10.7996 27.2451 10.9912L27.8387 11.8861L27.5608 14.2302L28.108 15.6858C28.1613 15.8322 28.3683 15.8322 28.4218 15.6858L28.969 14.2302L28.6912 11.8861L29.2847 10.9912C29.3954 10.7996 29.3728 10.5543 29.217 10.3845Z" fill="white"/>
<path d="M53.3125 8H60.3809C62.6868 8 64.3958 8.48307 65.5078 9.44922C66.6198 10.4062 67.1758 11.86 67.1758 13.8105C67.1758 14.4759 67.1211 15.0547 67.0117 15.5469C66.9023 16.0391 66.6745 16.513 66.3281 16.9688C65.9909 17.4154 65.4941 17.8255 64.8379 18.1992C65.9134 18.6003 66.6608 19.1882 67.0801 19.9629C67.4993 20.7285 67.709 21.6126 67.709 22.6152V29.0137H64.25V22.8887C64.25 21.8132 63.931 20.9883 63.293 20.4141C62.6641 19.8307 61.6934 19.5391 60.3809 19.5391H53.9961V16.7637H60.3809C61.4564 16.7637 62.2812 16.5039 62.8555 15.9844C63.4297 15.4557 63.7168 14.7174 63.7168 13.7695C63.7168 12.8216 63.4297 12.0879 62.8555 11.5684C62.2812 11.0397 61.4564 10.7754 60.3809 10.7754H53.3125V8ZM85.6328 14.207V29H82.1875V23.1895C81.6042 23.5814 80.9707 23.8822 80.2871 24.0918C79.6126 24.3014 78.9108 24.4062 78.1816 24.4062C76.7415 24.4062 75.4609 24.1465 74.3398 23.627C73.2188 23.1074 72.3392 22.3327 71.7012 21.3027C71.0723 20.2637 70.7578 19.0059 70.7578 17.5293V8H74.1895V17.5293C74.1895 18.9056 74.5404 19.9355 75.2422 20.6191C75.9531 21.3027 76.9329 21.6445 78.1816 21.6445C78.9928 21.6445 79.6992 21.4531 80.3008 21.0703C80.9023 20.6875 81.3626 20.1452 81.6816 19.4434C82.0098 18.7415 82.1738 17.9212 82.1738 16.9824V14.6582H82.1875V14.207H85.6328ZM88.8047 8H95.873C98.179 8 99.888 8.48307 101 9.44922C102.112 10.4062 102.668 11.86 102.668 13.8105C102.668 14.4759 102.613 15.0547 102.504 15.5469C102.395 16.0391 102.167 16.513 101.82 16.9688C101.483 17.4154 100.986 17.8255 100.33 18.1992C101.406 18.6003 102.153 19.1882 102.572 19.9629C102.992 20.7285 103.201 21.6126 103.201 22.6152V29.0137H99.7422V22.8887C99.7422 21.8132 99.4232 20.9883 98.7852 20.4141C98.1562 19.8307 97.1855 19.5391 95.873 19.5391H89.4883V16.7637H95.873C96.9486 16.7637 97.7734 16.5039 98.3477 15.9844C98.9219 15.4557 99.209 14.7174 99.209 13.7695C99.209 12.8216 98.9219 12.0879 98.3477 11.5684C97.7734 11.0397 96.9486 10.7754 95.873 10.7754H88.8047V8Z" fill="white"/>
</svg>
