<svg width="24" height="24" viewBox="0 0 24 24" fill="none" xmlns="http://www.w3.org/2000/svg">
<path d="M19.875 3H15.75V2.25C15.75 1.00734 14.7427 0 13.5 0H10.5C9.25734 0 8.25 1.00734 8.25 2.25V3H4.125C3.08948 3 2.25 3.83948 2.25 4.875V6.375C2.25 6.78923 2.58577 7.125 3 7.125H21C21.4142 7.125 21.75 6.78923 21.75 6.375V4.875C21.75 3.83948 20.9105 3 19.875 3ZM9.75 2.25C9.75 1.83656 10.0866 1.5 10.5 1.5H13.5C13.9134 1.5 14.25 1.83656 14.25 2.25V3H9.75V2.25Z" fill="#5B84D3"/>
<path d="M3.67382 8.625C3.53999 8.625 3.43335 8.73684 3.43972 8.87053L4.05847 21.8569C4.11566 23.0588 5.10285 24 6.30566 24H17.6953C18.8982 24 19.8853 23.0588 19.9425 21.8569L20.5613 8.87053C20.5677 8.73684 20.461 8.625 20.3272 8.625H3.67382ZM15.0005 10.5C15.0005 10.0856 15.3361 9.75 15.7505 9.75C16.1649 9.75 16.5005 10.0856 16.5005 10.5V20.25C16.5005 20.6644 16.1649 21 15.7505 21C15.3361 21 15.0005 20.6644 15.0005 20.25V10.5ZM11.2505 10.5C11.2505 10.0856 11.5861 9.75 12.0005 9.75C12.4149 9.75 12.7505 10.0856 12.7505 10.5V20.25C12.7505 20.6644 12.4149 21 12.0005 21C11.5861 21 11.2505 20.6644 11.2505 20.25V10.5ZM7.50051 10.5C7.50051 10.0856 7.83613 9.75 8.25051 9.75C8.66488 9.75 9.00051 10.0856 9.00051 10.5V20.25C9.00051 20.6644 8.66488 21 8.25051 21C7.83613 21 7.50051 20.6644 7.50051 20.25V10.5Z" fill="#5B84D3"/>
<path d="M19.875 3H15.75V2.25C15.75 1.00734 14.7427 0 13.5 0H10.5C9.25734 0 8.25 1.00734 8.25 2.25V3H4.125C3.08948 3 2.25 3.83948 2.25 4.875V6.375C2.25 6.78923 2.58577 7.125 3 7.125H21C21.4142 7.125 21.75 6.78923 21.75 6.375V4.875C21.75 3.83948 20.9105 3 19.875 3ZM9.75 2.25C9.75 1.83656 10.0866 1.5 10.5 1.5H13.5C13.9134 1.5 14.25 1.83656 14.25 2.25V3H9.75V2.25Z" fill="#F2F2F2" fill-opacity="0.8"/>
<path d="M3.67382 8.625C3.53999 8.625 3.43335 8.73684 3.43972 8.87053L4.05847 21.8569C4.11566 23.0588 5.10285 24 6.30566 24H17.6953C18.8982 24 19.8853 23.0588 19.9425 21.8569L20.5613 8.87053C20.5677 8.73684 20.461 8.625 20.3272 8.625H3.67382ZM15.0005 10.5C15.0005 10.0856 15.3361 9.75 15.7505 9.75C16.1649 9.75 16.5005 10.0856 16.5005 10.5V20.25C16.5005 20.6644 16.1649 21 15.7505 21C15.3361 21 15.0005 20.6644 15.0005 20.25V10.5ZM11.2505 10.5C11.2505 10.0856 11.5861 9.75 12.0005 9.75C12.4149 9.75 12.7505 10.0856 12.7505 10.5V20.25C12.7505 20.6644 12.4149 21 12.0005 21C11.5861 21 11.2505 20.6644 11.2505 20.25V10.5ZM7.50051 10.5C7.50051 10.0856 7.83613 9.75 8.25051 9.75C8.66488 9.75 9.00051 10.0856 9.00051 10.5V20.25C9.00051 20.6644 8.66488 21 8.25051 21C7.83613 21 7.50051 20.6644 7.50051 20.25V10.5Z" fill="#F2F2F2" fill-opacity="0.8"/>
</svg>
