<svg width="24" height="24" viewBox="0 0 24 24" fill="none" xmlns="http://www.w3.org/2000/svg">
<path d="M13.4803 14.2912C14.6928 14.2912 15.6758 13.2954 15.6758 12.067C15.6758 10.8386 14.6928 9.84277 13.4803 9.84277C12.2677 9.84277 11.2847 10.8386 11.2847 12.067C11.2847 13.2954 12.2677 14.2912 13.4803 14.2912Z" fill="#5B84D3"/>
<path d="M13.4803 14.2912C14.6928 14.2912 15.6758 13.2954 15.6758 12.067C15.6758 10.8386 14.6928 9.84277 13.4803 9.84277C12.2677 9.84277 11.2847 10.8386 11.2847 12.067C11.2847 13.2954 12.2677 14.2912 13.4803 14.2912Z" fill="#F2F2F2" fill-opacity="0.8"/>
<path d="M14.4117 14.4424H12.5488C10.9988 14.4424 9.73779 15.7203 9.73779 17.2902V19.5988L9.74355 19.6347L9.90027 19.6842C11.3794 20.1525 12.6647 20.3089 13.7228 20.3089C15.7885 20.3089 16.9858 19.7118 17.0598 19.6742L17.2065 19.5984L17.2216 19.5988V17.29C17.2227 15.7203 15.9621 14.4424 14.4117 14.4424Z" fill="#5B84D3"/>
<path d="M14.4117 14.4424H12.5488C10.9988 14.4424 9.73779 15.7203 9.73779 17.2902V19.5988L9.74355 19.6347L9.90027 19.6842C11.3794 20.1525 12.6647 20.3089 13.7228 20.3089C15.7885 20.3089 16.9858 19.7118 17.0598 19.6742L17.2065 19.5984L17.2216 19.5988V17.29C17.2227 15.7203 15.9621 14.4424 14.4117 14.4424Z" fill="#F2F2F2" fill-opacity="0.8"/>
<path d="M8.9982 9.17611C10.9543 9.17611 12.5401 7.56968 12.5401 5.58805C12.5401 3.60643 10.9543 2 8.9982 2C7.04206 2 5.4563 3.60643 5.4563 5.58805C5.4563 7.56968 7.04206 9.17611 8.9982 9.17611Z" fill="#5B84D3"/>
<path d="M8.9982 9.17611C10.9543 9.17611 12.5401 7.56968 12.5401 5.58805C12.5401 3.60643 10.9543 2 8.9982 2C7.04206 2 5.4563 3.60643 5.4563 5.58805C5.4563 7.56968 7.04206 9.17611 8.9982 9.17611Z" fill="#F2F2F2" fill-opacity="0.8"/>
<path d="M17.9619 9.17611C19.918 9.17611 21.5033 7.56903 21.5033 5.58762C21.5033 3.60686 19.9173 2 17.9619 2C16.0053 2 14.4202 3.60643 14.4202 5.58762C14.4202 7.56882 16.0053 9.17611 17.9619 9.17611Z" fill="#5B84D3"/>
<path d="M17.9619 9.17611C19.918 9.17611 21.5033 7.56903 21.5033 5.58762C21.5033 3.60686 19.9173 2 17.9619 2C16.0053 2 14.4202 3.60643 14.4202 5.58762C14.4202 7.56882 16.0053 9.17611 17.9619 9.17611Z" fill="#F2F2F2" fill-opacity="0.8"/>
<path d="M11.7587 14.0925C11.1964 13.6013 10.8388 12.876 10.8388 12.0668C10.8388 11.0745 11.376 10.2083 12.17 9.7463C11.6529 9.53786 11.0909 9.41992 10.5013 9.41992H7.49589C4.9956 9.41971 2.96143 11.4813 2.96143 14.0137V17.7378L2.97059 17.7959L3.22369 17.8756C5.56534 18.617 7.60378 18.8721 9.29168 18.8814V17.2901C9.29168 15.7469 10.344 14.4518 11.7587 14.0925Z" fill="#5B84D3"/>
<path d="M11.7587 14.0925C11.1964 13.6013 10.8388 12.876 10.8388 12.0668C10.8388 11.0745 11.376 10.2083 12.17 9.7463C11.6529 9.53786 11.0909 9.41992 10.5013 9.41992H7.49589C4.9956 9.41971 2.96143 11.4813 2.96143 14.0137V17.7378L2.97059 17.7959L3.22369 17.8756C5.56534 18.617 7.60378 18.8721 9.29168 18.8814V17.2901C9.29168 15.7469 10.344 14.4518 11.7587 14.0925Z" fill="#F2F2F2" fill-opacity="0.8"/>
<path d="M19.4645 9.41992H16.4595C15.87 9.41992 15.3085 9.53786 14.7913 9.7463C15.586 10.2083 16.1231 11.0741 16.1231 12.0668C16.1231 12.8756 15.7653 13.6009 15.2034 14.0921C15.7698 14.2349 16.2911 14.5284 16.7148 14.9578C17.3306 15.5821 17.6698 16.4107 17.6696 17.2907V18.8816C19.3575 18.8723 21.3962 18.617 23.7374 17.8759L23.9905 17.7962L23.9999 17.738V14.0139C23.999 11.4815 21.9648 9.41992 19.4645 9.41992Z" fill="#5B84D3"/>
<path d="M19.4645 9.41992H16.4595C15.87 9.41992 15.3085 9.53786 14.7913 9.7463C15.586 10.2083 16.1231 11.0741 16.1231 12.0668C16.1231 12.8756 15.7653 13.6009 15.2034 14.0921C15.7698 14.2349 16.2911 14.5284 16.7148 14.9578C17.3306 15.5821 17.6698 16.4107 17.6696 17.2907V18.8816C19.3575 18.8723 21.3962 18.617 23.7374 17.8759L23.9905 17.7962L23.9999 17.738V14.0139C23.999 11.4815 21.9648 9.41992 19.4645 9.41992Z" fill="#F2F2F2" fill-opacity="0.8"/>
<path d="M10.3585 16.5C10.3585 19.2675 8.14552 21.5 5.42925 21.5C2.71298 21.5 0.5 19.2675 0.5 16.5C0.5 13.7325 2.71298 11.5 5.42925 11.5C8.14552 11.5 10.3585 13.7325 10.3585 16.5Z" fill="#5B84D3"/>
<path d="M10.3585 16.5C10.3585 19.2675 8.14552 21.5 5.42925 21.5C2.71298 21.5 0.5 19.2675 0.5 16.5C0.5 13.7325 2.71298 11.5 5.42925 11.5C8.14552 11.5 10.3585 13.7325 10.3585 16.5Z" fill="#F2F2F2" fill-opacity="0.8"/>
<path d="M10.3585 16.5C10.3585 19.2675 8.14552 21.5 5.42925 21.5C2.71298 21.5 0.5 19.2675 0.5 16.5C0.5 13.7325 2.71298 11.5 5.42925 11.5C8.14552 11.5 10.3585 13.7325 10.3585 16.5Z" stroke="white"/>
<line x1="5.54541" y1="13.5" x2="5.54541" y2="19.5" stroke="white" stroke-linecap="round"/>
<line x1="2.47437" y1="16.3887" x2="8.38432" y2="16.3887" stroke="white" stroke-linecap="round"/>
</svg>
