<svg width="24" height="24" viewBox="0 0 24 24" fill="none" xmlns="http://www.w3.org/2000/svg">
<path d="M8.77995 11.8462C9.15705 12.3919 9.04432 11.9371 9.04432 22.8148C9.04432 23.7882 10.1549 24.3453 10.9376 23.763C14.2823 21.2413 14.9505 21.0229 14.9505 19.8434C14.9505 11.9167 14.8581 12.3624 15.2149 11.8462L20.6463 4.45312H3.34863L8.77995 11.8462Z" fill="#5B84D3"/>
<path d="M22.6979 0.602812C22.5038 0.231094 22.1232 0 21.7042 0H2.2906C1.38568 0 0.853223 1.0208 1.37232 1.7625C1.37658 1.76962 1.31339 1.68314 2.31544 3.04688H21.6793C22.5332 1.8847 23.104 1.38258 22.6979 0.602812Z" fill="#5B84D3"/>
</svg>
