<svg width="24" height="24" viewBox="0 0 24 24" fill="none" xmlns="http://www.w3.org/2000/svg">
<g clip-path="url(#clip0)">
<path d="M11.4441 16.5125C10.9023 16.5125 10.4632 16.0733 10.4632 15.5316C10.4632 14.9898 10.9024 14.5506 11.4441 14.5506L15.6948 14.5507H17.6567V13.5044V10.3653H15.6948H14.3076H9.48229C8.94062 10.3653 8.50136 9.92608 8.50136 9.38435V4.55904V3.17181V1.20996H0.980926C0.439259 1.20996 0 1.64915 0 2.19089V21.8094C0 22.3512 0.439259 22.7903 0.980926 22.7903H16.6757C17.2175 22.7903 17.6567 22.3512 17.6567 21.8094V18.518V16.5125H15.6948L11.4441 16.5125Z" fill="#5B84D3"/>
<path d="M23.9952 15.4351C23.9937 15.4204 23.991 15.4062 23.9889 15.3917C23.9864 15.3745 23.9844 15.3573 23.981 15.3403C23.9777 15.3237 23.9733 15.3077 23.9691 15.2915C23.9653 15.2767 23.9621 15.2618 23.9577 15.2472C23.9529 15.2314 23.947 15.216 23.9414 15.2006C23.9361 15.1859 23.9313 15.171 23.9253 15.1565C23.9193 15.142 23.9123 15.1282 23.9056 15.1142C23.8986 15.0992 23.892 15.0842 23.8841 15.0695C23.8769 15.0561 23.8687 15.0434 23.8609 15.0303C23.8523 15.0158 23.8441 15.0013 23.8347 14.9873C23.8252 14.9729 23.8145 14.9595 23.8042 14.9457C23.7953 14.9338 23.7871 14.9217 23.7777 14.9102C23.758 14.8863 23.7374 14.8635 23.7157 14.8416C23.7146 14.8405 23.7138 14.8394 23.7127 14.8383L21.2605 12.3859C20.8774 12.0029 20.2563 12.0029 19.8732 12.3859C19.4902 12.7689 19.4902 13.39 19.8732 13.7731L20.6509 14.551H19.3665H17.6567V16.5129H18.4946H20.651L19.8732 17.2906C19.4902 17.6737 19.4902 18.2947 19.8732 18.6778C20.0647 18.8694 20.3158 18.9652 20.5668 18.9652C20.8179 18.9652 21.0689 18.8694 21.2605 18.6778L23.7127 16.2256C23.7132 16.2251 23.7136 16.2245 23.7141 16.2241C23.7365 16.2016 23.7576 16.1782 23.7777 16.1538C23.7872 16.1422 23.7954 16.13 23.8044 16.118C23.8146 16.1043 23.8252 16.0909 23.8348 16.0767C23.8443 16.0625 23.8525 16.0478 23.8611 16.0334C23.8687 16.0204 23.8769 16.0077 23.8841 15.9944C23.892 15.9797 23.8987 15.9645 23.9058 15.9494C23.9124 15.9355 23.9194 15.9217 23.9253 15.9074C23.9314 15.8928 23.9362 15.8779 23.9415 15.863C23.9471 15.8477 23.953 15.8325 23.9577 15.8167C23.9621 15.802 23.9655 15.787 23.9692 15.7721C23.9733 15.756 23.9778 15.74 23.9811 15.7236C23.9845 15.7065 23.9865 15.6893 23.9889 15.6721C23.991 15.6576 23.9937 15.6434 23.9952 15.6287C23.9984 15.597 24 15.5651 24 15.5332C24 15.5328 24.0001 15.5323 24.0001 15.5319C24.0001 15.5314 24 15.5308 24 15.5303C23.9999 15.4984 23.9983 15.4667 23.9952 15.4351Z" fill="#5B84D3"/>
<path d="M17.082 8.40301L10.4631 1.78418V4.55863V8.40301H14.3075H17.082Z" fill="#5B84D3"/>
<path d="M11.4441 16.5125C10.9023 16.5125 10.4632 16.0733 10.4632 15.5316C10.4632 14.9898 10.9024 14.5506 11.4441 14.5506L15.6948 14.5507H17.6567V13.5044V10.3653H15.6948H14.3076H9.48229C8.94062 10.3653 8.50136 9.92608 8.50136 9.38435V4.55904V3.17181V1.20996H0.980926C0.439259 1.20996 0 1.64915 0 2.19089V21.8094C0 22.3512 0.439259 22.7903 0.980926 22.7903H16.6757C17.2175 22.7903 17.6567 22.3512 17.6567 21.8094V18.518V16.5125H15.6948L11.4441 16.5125Z" fill="#F2F2F2" fill-opacity="0.8"/>
<path d="M23.9952 15.4351C23.9937 15.4204 23.991 15.4062 23.9889 15.3917C23.9864 15.3745 23.9844 15.3573 23.981 15.3403C23.9777 15.3237 23.9733 15.3077 23.9691 15.2915C23.9653 15.2767 23.9621 15.2618 23.9577 15.2472C23.9529 15.2314 23.947 15.216 23.9414 15.2006C23.9361 15.1859 23.9313 15.171 23.9253 15.1565C23.9193 15.142 23.9123 15.1282 23.9056 15.1142C23.8986 15.0992 23.892 15.0842 23.8841 15.0695C23.8769 15.0561 23.8687 15.0434 23.8609 15.0303C23.8523 15.0158 23.8441 15.0013 23.8347 14.9873C23.8252 14.9729 23.8145 14.9595 23.8042 14.9457C23.7953 14.9338 23.7871 14.9217 23.7777 14.9102C23.758 14.8863 23.7374 14.8635 23.7157 14.8416C23.7146 14.8405 23.7138 14.8394 23.7127 14.8383L21.2605 12.3859C20.8774 12.0029 20.2563 12.0029 19.8732 12.3859C19.4902 12.7689 19.4902 13.39 19.8732 13.7731L20.6509 14.551H19.3665H17.6567V16.5129H18.4946H20.651L19.8732 17.2906C19.4902 17.6737 19.4902 18.2947 19.8732 18.6778C20.0647 18.8694 20.3158 18.9652 20.5668 18.9652C20.8179 18.9652 21.0689 18.8694 21.2605 18.6778L23.7127 16.2256C23.7132 16.2251 23.7136 16.2245 23.7141 16.2241C23.7365 16.2016 23.7576 16.1782 23.7777 16.1538C23.7872 16.1422 23.7954 16.13 23.8044 16.118C23.8146 16.1043 23.8252 16.0909 23.8348 16.0767C23.8443 16.0625 23.8525 16.0478 23.8611 16.0334C23.8687 16.0204 23.8769 16.0077 23.8841 15.9944C23.892 15.9797 23.8987 15.9645 23.9058 15.9494C23.9124 15.9355 23.9194 15.9217 23.9253 15.9074C23.9314 15.8928 23.9362 15.8779 23.9415 15.863C23.9471 15.8477 23.953 15.8325 23.9577 15.8167C23.9621 15.802 23.9655 15.787 23.9692 15.7721C23.9733 15.756 23.9778 15.74 23.9811 15.7236C23.9845 15.7065 23.9865 15.6893 23.9889 15.6721C23.991 15.6576 23.9937 15.6434 23.9952 15.6287C23.9984 15.597 24 15.5651 24 15.5332C24 15.5328 24.0001 15.5323 24.0001 15.5319C24.0001 15.5314 24 15.5308 24 15.5303C23.9999 15.4984 23.9983 15.4667 23.9952 15.4351Z" fill="#F2F2F2" fill-opacity="0.8"/>
<path d="M17.082 8.40301L10.4631 1.78418V4.55863V8.40301H14.3075H17.082Z" fill="#F2F2F2" fill-opacity="0.8"/>
</g>
<defs>
<clipPath id="clip0">
<rect width="24" height="24" fill="white"/>
</clipPath>
</defs>
</svg>
