<svg width="20" height="24" viewBox="0 0 20 24" fill="none" xmlns="http://www.w3.org/2000/svg">
  <path d="M9.9668 2.03319H2.49168C2.0332 2.03319 1.66113 2.47972 1.66113 3.02985V20.9701C1.66113 21.5203 2.03324 21.9667 2.49168 21.9667H9.9668C10.4261 21.9667 10.7973 22.4122 10.7973 22.9634C10.7973 23.5146 10.4261 23.9601 9.9668 23.9601H2.49168C1.11793 23.9601 0 22.6186 0 20.9701V3.02989C0 1.38139 1.11793 0.0398769 2.49168 0.0398769H9.9668C10.4261 0.0398769 10.7973 0.485376 10.7973 1.03653C10.7973 1.58769 10.4261 2.03319 9.9668 2.03319Z" fill="white"/>
  <path d="M19.7524 12.7097L14.7025 18.6897C14.3769 19.0765 13.8504 19.0715 13.5281 18.6798C13.2059 18.2881 13.2092 17.6572 13.5364 17.2705L17.1452 12.9967H7.47496C7.01566 12.9967 6.64441 12.5512 6.64441 12.0001C6.64441 11.4489 7.01566 11.0034 7.47496 11.0034H17.1452L13.5364 6.72964C13.2092 6.34292 13.2067 5.71203 13.5281 5.32034C13.6909 5.123 13.9052 5.02334 14.1195 5.02334C14.3305 5.02334 14.5414 5.11901 14.7025 5.3104L19.7524 11.2905C19.9102 11.4778 19.9999 11.733 19.9999 12.0001C19.9999 12.2671 19.911 12.5213 19.7524 12.7097Z" fill="white"/>
</svg>
