<svg width="20" height="24" viewBox="0 0 20 24" fill="none" xmlns="http://www.w3.org/2000/svg">
<path d="M17.875 3H13.75V2.25C13.75 1.00734 12.7427 0 11.5 0H8.5C7.25734 0 6.25 1.00734 6.25 2.25V3H2.125C1.08948 3 0.25 3.83948 0.25 4.875V6.375C0.25 6.78923 0.585766 7.125 1 7.125H19C19.4142 7.125 19.75 6.78923 19.75 6.375V4.875C19.75 3.83948 18.9105 3 17.875 3ZM7.75 2.25C7.75 1.83656 8.08656 1.5 8.5 1.5H11.5C11.9134 1.5 12.25 1.83656 12.25 2.25V3H7.75V2.25Z" fill="#5B84D3"/>
<path d="M1.6737 8.625C1.53987 8.625 1.43323 8.73684 1.4396 8.87053L2.05835 21.8569C2.11554 23.0588 3.10273 24 4.30554 24H15.6952C16.898 24 17.8852 23.0588 17.9424 21.8569L18.5612 8.87053C18.5675 8.73684 18.4609 8.625 18.3271 8.625H1.6737ZM13.0004 10.5C13.0004 10.0856 13.336 9.75 13.7504 9.75C14.1648 9.75 14.5004 10.0856 14.5004 10.5V20.25C14.5004 20.6644 14.1648 21 13.7504 21C13.336 21 13.0004 20.6644 13.0004 20.25V10.5ZM9.25038 10.5C9.25038 10.0856 9.58601 9.75 10.0004 9.75C10.4148 9.75 10.7504 10.0856 10.7504 10.5V20.25C10.7504 20.6644 10.4148 21 10.0004 21C9.58601 21 9.25038 20.6644 9.25038 20.25V10.5ZM5.50038 10.5C5.50038 10.0856 5.83601 9.75 6.25038 9.75C6.66476 9.75 7.00038 10.0856 7.00038 10.5V20.25C7.00038 20.6644 6.66476 21 6.25038 21C5.83601 21 5.50038 20.6644 5.50038 20.25V10.5Z" fill="#5B84D3"/>
</svg>
