<svg width="24" height="24" viewBox="0 0 24 24" fill="none" xmlns="http://www.w3.org/2000/svg">
  <path d="M23.7523 5.18802C23.6301 4.6993 23.0209 4.52919 22.6649 4.88545L19.7736 7.77685C19.1315 8.41865 18.0906 8.41865 17.4486 7.77685L16.122 6.45022C15.48 5.80822 15.48 4.76737 16.122 4.12528L18.9782 1.26906C19.3368 0.910449 19.1623 0.295448 18.6687 0.179869C17.9928 0.0219346 17.2785 -0.0363705 16.5417 0.0224254C13.3751 0.275081 10.4606 3.24437 10.2635 6.41508C10.1888 7.61764 10.4318 8.75449 10.9053 9.76153L0.797566 18.4475C0.342953 18.8381 0.0707152 19.3996 0.045538 19.9984C0.0200663 20.5972 0.243913 21.1797 0.663876 21.6072L2.37681 23.3515C2.80085 23.7835 3.38635 24.0183 3.99144 23.9989C4.59657 23.9793 5.16578 23.7075 5.56126 23.2494L14.3162 13.1057C15.2937 13.5419 16.3878 13.7645 17.543 13.6925C20.7351 13.4933 23.705 10.5554 23.9374 7.36577C23.9925 6.61016 23.9247 5.87845 23.7523 5.18802Z" fill="white"/>
</svg>
