<svg width="23" height="24" viewBox="0 0 23 24" fill="none" xmlns="http://www.w3.org/2000/svg">
  <path d="M21.7379 9.394L19.9362 9.155C19.7877 8.678 19.6046 8.218 19.3909 7.781L20.5035 6.286C20.954 5.681 20.9013 4.827 20.3866 4.307L18.8773 2.732C18.3741 2.19 17.5557 2.136 16.975 2.605L15.5442 3.766C15.1254 3.543 14.6845 3.352 14.2265 3.197L13.9974 1.32C13.9112 0.567 13.2988 0 12.5733 0H10.4267C9.70121 0 9.08883 0.567 9.00258 1.317L8.77354 3.197C8.31546 3.352 7.87463 3.542 7.45583 3.766L6.02408 2.605C5.44525 2.136 4.62683 2.19 4.12754 2.727L2.61817 4.301C2.09875 4.827 2.04604 5.681 2.49646 6.287L3.60908 7.781C3.39442 8.218 3.21233 8.678 3.06379 9.155L1.265 9.394C0.543375 9.484 0 10.123 0 10.88V13.12C0 13.877 0.543375 14.516 1.26213 14.606L3.06379 14.845C3.21233 15.322 3.39538 15.782 3.60908 16.219L2.49646 17.714C2.04604 18.319 2.09875 19.173 2.61338 19.693L4.12275 21.268C4.62683 21.809 5.44429 21.863 6.02504 21.394L7.45679 20.233C7.87558 20.457 8.31642 20.648 8.77354 20.802L9.00258 22.678C9.08883 23.433 9.70121 24 10.4267 24H12.5733C13.2988 24 13.9112 23.433 13.9974 22.683L14.2265 20.803C14.6836 20.648 15.1244 20.457 15.5432 20.234L16.9759 21.395C17.5557 21.865 18.3741 21.81 18.8725 21.273L20.3818 19.698C20.9013 19.172 20.954 18.319 20.5035 17.713L19.3909 16.219C19.6056 15.782 19.7886 15.322 19.9362 14.845L21.734 14.606C22.4557 14.516 22.999 13.877 22.999 13.12V10.88C23 10.123 22.4566 9.484 21.7379 9.394ZM11.5 17C8.85788 17 6.70833 14.757 6.70833 12C6.70833 9.243 8.85788 7 11.5 7C14.1421 7 16.2917 9.243 16.2917 12C16.2917 14.757 14.1421 17 11.5 17Z" fill="white"/>
</svg>
